<svg width="369" height="369" viewBox="0 0 369 369" fill="none" xmlns="http://www.w3.org/2000/svg">
    <path fill-rule="evenodd" clip-rule="evenodd" d="M364 0H353V5H364V16H369L369 5V0H364Z" fill="aaa" />
    <path fill-rule="evenodd" clip-rule="evenodd" d="M364 0H353V5H364V16H369L369 5V0H364Z" fill="aaa" />
    <path fill-rule="evenodd" clip-rule="evenodd" d="M5 0H16V5H5V16H9.53674e-07L0 5V0H5Z" fill="aaa" />
    <path fill-rule="evenodd" clip-rule="evenodd" d="M364 369H353V364H364V353H369L369 364V369H364Z" fill="aaa" />
    <path fill-rule="evenodd" clip-rule="evenodd" d="M5 369H16V364H5V353H9.53674e-07L0 364V369H5Z" fill="aaa" />
    <rect width="16" height="5" transform="matrix(-4.37114e-08 -1 -1 4.37114e-08 369 183)" fill="aaa" />
    <rect width="16" height="5" transform="matrix(-4.37114e-08 -1 -1 4.37114e-08 5 183)" fill="aaa" />
    <rect width="16" height="5" transform="matrix(1 0 0 -1 177 5)" fill="aaa" />
    <rect width="16" height="5" transform="matrix(1 0 0 -1 177 369)" fill="aaa" />
    <rect x="2.5" y="2.5" width="364" height="364" stroke="aaa" />
</svg>