<svg width="680" height="680" viewBox="0 0 680 680" fill="none" xmlns="http://www.w3.org/2000/svg">
<rect y="389" width="1" height="679" transform="rotate(-90 0 389)" fill="#D9D9D9"/>
<rect y="486" width="1" height="680" transform="rotate(-90 0 486)" fill="#D9D9D9"/>
<rect y="583" width="1" height="680" transform="rotate(-90 0 583)" fill="#D9D9D9"/>
<rect y="98" width="1" height="680" transform="rotate(-90 0 98)" fill="#D9D9D9"/>
<rect y="195" width="1" height="680" transform="rotate(-90 0 195)" fill="#D9D9D9"/>
<rect y="292" width="1" height="680" transform="rotate(-90 0 292)" fill="#D9D9D9"/>
<rect x="389" y="680" width="1" height="680" transform="rotate(-180 389 680)" fill="#D9D9D9"/>
<rect x="486" y="680" width="1" height="680" transform="rotate(-180 486 680)" fill="#D9D9D9"/>
<rect x="583" y="680" width="1" height="680" transform="rotate(-180 583 680)" fill="#D9D9D9"/>
<rect x="98" y="680" width="1" height="680" transform="rotate(-180 98 680)" fill="#D9D9D9"/>
<rect x="195" y="680" width="1" height="680" transform="rotate(-180 195 680)" fill="#D9D9D9"/>
<rect x="292" y="680" width="1" height="680" transform="rotate(-180 292 680)" fill="#D9D9D9"/>
</svg>
