<svg width="171" height="57" viewBox="0 0 171 57" fill="none" xmlns="http://www.w3.org/2000/svg">
<path d="M39.96 0V51.653H31.752V29.0595H8.208V51.653H0V0H8.208V22.1476H31.752V0H39.96Z" fill="#009A33"/>
<path d="M68.7512 2.78372V28.5796H64.2834V17.2962H51.4678V28.5796H47V2.78372H51.4678V13.8444H64.2834V2.78372H68.7512Z" fill="#585E60"/>
<path d="M79.1007 11.0978C79.7539 10.0585 80.6161 9.25433 81.6873 8.68522C82.7847 8.09136 84.078 7.79443 85.5673 7.79443V12.1742H84.4307C82.6802 12.1742 81.3477 12.5948 80.4332 13.4361C79.5449 14.2774 79.1007 15.7373 79.1007 17.8158V28.5796H74.6329V8.12847H79.1007V11.0978Z" fill="#585E60"/>
<path d="M91.9472 5.41898C91.1372 5.41898 90.4579 5.15917 89.9093 4.63954C89.3606 4.11991 89.0862 3.47656 89.0862 2.70949C89.0862 1.94242 89.3606 1.29907 89.9093 0.779444C90.4579 0.259815 91.1372 0 91.9472 0C92.731 0 93.3973 0.259815 93.946 0.779444C94.4946 1.29907 94.769 1.94242 94.769 2.70949C94.769 3.47656 94.4946 4.11991 93.946 4.63954C93.3973 5.15917 92.731 5.41898 91.9472 5.41898ZM94.1419 8.12847V28.5796H89.6741V8.12847H94.1419Z" fill="#585E60"/>
<path d="M98.5185 18.2612C98.5185 16.2075 98.9626 14.3888 99.851 12.8051C100.765 11.2215 101.993 9.99666 103.535 9.13061C105.103 8.23982 106.84 7.79443 108.747 7.79443C110.158 7.79443 111.543 8.09136 112.902 8.68522C114.286 9.25433 115.384 10.0214 116.194 10.9864V1.11349H120.701V28.5796H116.194V25.4989C115.462 26.4887 114.443 27.3052 113.137 27.9486C111.857 28.5919 110.38 28.9136 108.708 28.9136C106.827 28.9136 105.103 28.4682 103.535 27.5774C101.993 26.6619 100.765 25.3999 99.851 23.7916C98.9626 22.1584 98.5185 20.315 98.5185 18.2612ZM116.194 18.3355C116.194 16.925 115.88 15.7002 115.253 14.6609C114.652 13.6217 113.855 12.8299 112.862 12.2855C111.87 11.7411 110.798 11.4689 109.649 11.4689C108.499 11.4689 107.428 11.7411 106.435 12.2855C105.442 12.8051 104.632 13.5846 104.005 14.6238C103.404 15.6383 103.104 16.8508 103.104 18.2612C103.104 19.6716 103.404 20.9089 104.005 21.9729C104.632 23.0369 105.442 23.8534 106.435 24.4225C107.454 24.9669 108.525 25.2391 109.649 25.2391C110.798 25.2391 111.87 24.9669 112.862 24.4225C113.855 23.8782 114.652 23.0863 115.253 22.0471C115.88 20.9831 116.194 19.7459 116.194 18.3355Z" fill="#585E60"/>
<path d="M135.936 28.9136C133.898 28.9136 132.056 28.4806 130.41 27.6145C128.764 26.7237 127.47 25.4865 126.53 23.9029C125.589 22.2945 125.119 20.4387 125.119 18.3355C125.119 16.2569 125.602 14.4135 126.569 12.8051C127.536 11.1968 128.855 9.95954 130.527 9.0935C132.2 8.22745 134.068 7.79443 136.132 7.79443C138.196 7.79443 140.064 8.22745 141.736 9.0935C143.408 9.95954 144.728 11.1968 145.694 12.8051C146.661 14.4135 147.144 16.2569 147.144 18.3355C147.144 20.414 146.648 22.2574 145.655 23.8658C144.662 25.4742 143.304 26.7237 141.579 27.6145C139.881 28.4806 138 28.9136 135.936 28.9136ZM135.936 25.2391C137.085 25.2391 138.157 24.9793 139.149 24.4596C140.168 23.94 140.991 23.1606 141.618 22.1213C142.246 21.0821 142.559 19.8201 142.559 18.3355C142.559 16.8508 142.259 15.6012 141.658 14.5867C141.057 13.5475 140.26 12.768 139.267 12.2484C138.274 11.7288 137.203 11.4689 136.053 11.4689C134.904 11.4689 133.832 11.7288 132.84 12.2484C131.873 12.768 131.102 13.5475 130.527 14.5867C129.953 15.6012 129.665 16.8508 129.665 18.3355C129.665 20.5377 130.253 22.245 131.429 23.4575C132.631 24.6452 134.133 25.2391 135.936 25.2391Z" fill="#585E60"/>
<path d="M171 8.12847L157.753 38.1927H153.129L157.518 28.2455L149.014 8.12847H153.991L160.066 23.7173L166.375 8.12847H171Z" fill="#585E60"/>
<path d="M52.0078 43.583V41.7181C52.0078 40.9117 52.0306 40.1791 52.0762 39.5206C52.1283 38.8552 52.2389 38.2403 52.4082 37.6758C51.8939 37.5952 51.3665 37.5011 50.8262 37.3936C50.2858 37.2793 49.7552 37.1718 49.2344 37.071C48.7201 36.9702 48.2285 36.8862 47.7598 36.819C47.2975 36.7451 46.8809 36.7081 46.5098 36.7081C46.0085 36.7081 45.5918 36.7518 45.2598 36.8392C44.9277 36.9198 44.6608 37.0307 44.459 37.1718C44.2572 37.3129 44.1139 37.4776 44.0293 37.6658C43.9512 37.8472 43.9121 38.0421 43.9121 38.2504C43.9121 38.4587 43.9577 38.6503 44.0488 38.825C44.1465 38.9997 44.2832 39.1543 44.459 39.2887C44.6348 39.4164 44.8431 39.5172 45.084 39.5911C45.3314 39.665 45.6048 39.702 45.9043 39.702C46.2363 39.702 46.5293 39.665 46.7832 39.5911C47.0436 39.5105 47.265 39.4231 47.4473 39.329C47.6621 39.2215 47.8509 39.0972 48.0137 38.9561L48.209 39.3895C48.0072 39.5441 47.7858 39.6818 47.5449 39.8028C47.3366 39.9103 47.0924 40.0078 46.8125 40.0951C46.5391 40.1758 46.2363 40.2161 45.9043 40.2161C45.4681 40.2161 45.0807 40.1556 44.7422 40.0347C44.4102 39.9137 44.1302 39.7524 43.9023 39.5508C43.6745 39.3425 43.502 39.1005 43.3848 38.825C43.2676 38.5495 43.209 38.2571 43.209 37.948C43.209 37.6187 43.2643 37.2995 43.375 36.9904C43.4792 36.6812 43.6582 36.4057 43.9121 36.1638C44.1595 35.9218 44.4883 35.7303 44.8984 35.5892C45.3086 35.4413 45.8132 35.3674 46.4121 35.3674C46.9655 35.3674 47.5189 35.4145 48.0723 35.5085C48.6322 35.5959 49.1823 35.7068 49.7227 35.8412C50.2695 35.9689 50.8001 36.11 51.3145 36.2646C51.8353 36.4124 52.3333 36.5468 52.8086 36.6678C53.0885 36.1369 53.4368 35.7135 53.8535 35.3977C54.2702 35.0751 54.7227 34.9138 55.2109 34.9138C55.4193 34.9138 55.6048 34.9508 55.7676 35.0247C55.9303 35.0919 56.0671 35.1826 56.1777 35.2969C56.2884 35.4111 56.3698 35.5455 56.4219 35.7001C56.4805 35.8479 56.5098 36.0058 56.5098 36.1739C56.5098 36.4561 56.4447 36.7014 56.3145 36.9097C56.1908 37.1113 56.0182 37.2827 55.7969 37.4238C55.5755 37.5582 55.3151 37.659 55.0156 37.7262C54.7161 37.7867 54.3939 37.817 54.0488 37.817C53.9707 37.817 53.8893 37.817 53.8047 37.817C53.7266 37.817 53.6484 37.8102 53.5703 37.7968C53.5182 38.1328 53.4759 38.5092 53.4434 38.9258C53.4173 39.3357 53.4043 39.7994 53.4043 40.3169V43.583H54.7129L54.5078 44.1979H53.4043V46.6776C53.4043 47.2422 53.3978 47.7361 53.3848 48.1595C53.3717 48.5761 53.3359 48.9491 53.2773 49.2784C53.2188 49.601 53.1309 49.8933 53.0137 50.1554C52.8965 50.4108 52.7337 50.6628 52.5254 50.9114C52.1673 51.3348 51.6693 51.6809 51.0312 51.9497C50.3932 52.2185 49.6185 52.3529 48.707 52.3529C48.1471 52.3529 47.6133 52.2723 47.1055 52.111C46.5977 51.9497 46.1517 51.7246 45.7676 51.4356C45.3835 51.1466 45.0775 50.8005 44.8496 50.3973C44.6217 49.9941 44.5078 49.5472 44.5078 49.0566C44.5078 48.6937 44.5632 48.3678 44.6738 48.0788C44.791 47.7899 44.9408 47.5345 45.123 47.3127C45.3053 47.0842 45.5039 46.8893 45.7188 46.7281C45.9401 46.5668 46.1549 46.4324 46.3633 46.3248C46.5716 46.2173 46.7604 46.1333 46.9297 46.0728C47.099 46.0123 47.2259 45.972 47.3105 45.9519L47.5059 46.3652C47.3561 46.4458 47.1868 46.5567 46.998 46.6978C46.8158 46.8322 46.6432 47.0069 46.4805 47.222C46.3177 47.4303 46.181 47.6857 46.0703 47.9881C45.9596 48.2905 45.9043 48.6467 45.9043 49.0566C45.9043 49.4934 45.9759 49.8866 46.1191 50.236C46.2624 50.5788 46.4609 50.8711 46.7148 51.113C46.9753 51.3482 47.2812 51.5297 47.6328 51.6574C47.9909 51.7783 48.3815 51.8388 48.8047 51.8388C49.2799 51.8388 49.7129 51.7716 50.1035 51.6372C50.5007 51.5028 50.8392 51.2777 51.1191 50.9618C51.3991 50.646 51.6172 50.226 51.7734 49.7018C51.9297 49.1776 52.0078 48.5257 52.0078 47.7462V44.1979H50.1133L50.3086 43.583H52.0078ZM55.2109 35.4682C54.918 35.4682 54.6478 35.5791 54.4004 35.8009C54.153 36.0159 53.9479 36.3855 53.7852 36.9097C53.987 36.9433 54.1823 36.9702 54.3711 36.9904C54.5599 37.0105 54.7389 37.0206 54.9082 37.0206C55.084 37.0206 55.2337 36.9971 55.3574 36.95C55.4876 36.8963 55.5918 36.8291 55.6699 36.7484C55.748 36.6678 55.8066 36.5771 55.8457 36.4763C55.8848 36.3755 55.9043 36.2747 55.9043 36.1739C55.9043 35.979 55.8392 35.8143 55.709 35.6799C55.5788 35.5388 55.4128 35.4682 55.2109 35.4682Z" fill="#2E3335" fill-opacity="0.66"/>
<path d="M55.5234 47.5042L55.6211 47.2926C55.7188 47.0909 55.8066 46.8826 55.8848 46.6676C55.9694 46.4525 56.041 46.2509 56.0996 46.0627C56.1582 45.8679 56.2038 45.6965 56.2363 45.5486C56.2689 45.3941 56.2917 45.2765 56.3047 45.1958C56.1354 45.1757 55.9727 45.132 55.8164 45.0648C55.6602 44.9976 55.5234 44.9069 55.4062 44.7926C55.2891 44.6784 55.1979 44.544 55.1328 44.3894C55.0612 44.2348 55.0254 44.0601 55.0254 43.8652C55.0254 43.7106 55.0514 43.5729 55.1035 43.4519C55.1556 43.331 55.2272 43.2301 55.3184 43.1495C55.403 43.0689 55.5007 43.0084 55.6113 42.9681C55.7155 42.921 55.8262 42.8975 55.9434 42.8975C56.0996 42.8975 56.2363 42.9311 56.3535 42.9983C56.4707 43.0655 56.5684 43.1562 56.6465 43.2705C56.7246 43.378 56.7832 43.5057 56.8223 43.6535C56.8613 43.7947 56.8809 43.9425 56.8809 44.0971C57.0632 44.0971 57.2585 44.0702 57.4668 44.0164C57.6816 43.9627 57.8965 43.9055 58.1113 43.8451C58.3262 43.7778 58.5378 43.7174 58.7461 43.6636C58.9544 43.6098 59.1465 43.583 59.3223 43.583C59.472 43.583 59.5924 43.6166 59.6836 43.6838C59.7747 43.7442 59.8203 43.8484 59.8203 43.9963C59.8203 44.1038 59.7878 44.2819 59.7227 44.5305C59.6641 44.7792 59.5892 45.0681 59.498 45.3974C59.4069 45.7267 59.306 46.0863 59.1953 46.476C59.0911 46.8591 58.9935 47.2489 58.9023 47.6454C58.8112 48.0351 58.7331 48.4148 58.668 48.7845C58.6094 49.1541 58.5801 49.4834 58.5801 49.7723C58.5801 50.1352 58.6191 50.3805 58.6973 50.5082C58.7754 50.6359 58.9154 50.6997 59.1172 50.6997C59.2018 50.6997 59.306 50.6628 59.4297 50.5889C59.5599 50.5082 59.7161 50.357 59.8984 50.1352C60.0807 49.9067 60.2956 49.5842 60.543 49.1675C60.7969 48.7441 61.0898 48.1897 61.4219 47.5042L61.5195 47.2926L61.9199 47.605L61.8223 47.8167C61.4316 48.6232 61.0833 49.2851 60.7773 49.8026C60.4714 50.32 60.1882 50.73 59.9277 51.0324C59.6738 51.3348 59.4329 51.5465 59.2051 51.6675C58.9772 51.7817 58.7493 51.8388 58.5215 51.8388C58.1374 51.8388 57.8249 51.6876 57.584 51.3852C57.3431 51.0828 57.2227 50.6157 57.2227 49.984C57.2227 49.6413 57.2682 49.2851 57.3594 48.9155C57.4505 48.5459 57.5645 48.1796 57.7012 47.8167C57.8379 47.4471 57.9909 47.0842 58.1602 46.7281C58.3294 46.3719 58.4889 46.0359 58.6387 45.72C58.7949 45.3974 58.9349 45.0984 59.0586 44.8229C59.1823 44.5473 59.2702 44.3054 59.3223 44.0971L59.2637 44.0366C59.1595 44.0366 59.0195 44.0937 58.8438 44.2079C58.668 44.3222 58.4694 44.4532 58.248 44.6011C58.0332 44.7422 57.8021 44.8766 57.5547 45.0043C57.3073 45.132 57.0566 45.2093 56.8027 45.2361C56.7897 45.3302 56.7604 45.468 56.7148 45.6494C56.6758 45.8309 56.6204 46.0325 56.5488 46.2543C56.4772 46.476 56.3958 46.7045 56.3047 46.9397C56.2135 47.1749 56.1191 47.3967 56.0215 47.605L55.9238 47.8167L55.5234 47.5042ZM56.002 43.462C55.9434 43.462 55.8945 43.4822 55.8555 43.5225C55.8164 43.5628 55.7969 43.6098 55.7969 43.6636C55.7969 43.7442 55.8164 43.8148 55.8555 43.8753C55.8945 43.9291 55.9434 43.9761 56.002 44.0164C56.0605 44.05 56.1191 44.0769 56.1777 44.0971C56.2428 44.1105 56.2982 44.1172 56.3438 44.1172C56.3438 43.9291 56.3145 43.7745 56.2559 43.6535C56.1973 43.5258 56.1126 43.462 56.002 43.462Z" fill="#2E3335" fill-opacity="0.66"/>
<path d="M69.7031 47.605L69.5957 47.8167C69.3743 48.2737 69.0781 48.64 68.707 48.9155C68.3424 49.1843 67.9453 49.359 67.5156 49.4397C67.3984 49.7824 67.2454 50.1016 67.0566 50.3973C66.8743 50.6863 66.6628 50.9383 66.4219 51.1534C66.1875 51.3684 65.9206 51.5364 65.6211 51.6574C65.3281 51.7783 65.0091 51.8388 64.6641 51.8388C64.1628 51.8388 63.7103 51.7313 63.3066 51.5162C62.9095 51.2945 62.571 50.9988 62.291 50.6292C62.0111 50.2528 61.7962 49.816 61.6465 49.3187C61.4967 48.8147 61.4219 48.2771 61.4219 47.7059C61.4219 47.2086 61.4772 46.7583 61.5879 46.3551C61.6986 45.9451 61.8385 45.5822 62.0078 45.2664C62.1771 44.9438 62.3659 44.6649 62.5742 44.4297C62.7826 44.1878 62.9876 43.9895 63.1895 43.835C63.3913 43.6804 63.5736 43.5662 63.7363 43.4922C63.9056 43.4116 64.0326 43.3713 64.1172 43.3713L64.2441 43.7241C63.9772 43.9257 63.7396 44.2079 63.5312 44.5708C63.349 44.88 63.1829 45.2899 63.0332 45.8007C62.89 46.3114 62.8184 46.9465 62.8184 47.7059C62.8184 48.1696 62.8607 48.6198 62.9453 49.0566C63.0299 49.4934 63.1536 49.8799 63.3164 50.2159C63.4792 50.5519 63.6777 50.8207 63.9121 51.0223C64.153 51.2239 64.4232 51.3247 64.7227 51.3247C65.1328 51.3247 65.4714 51.1567 65.7383 50.8207C66.0117 50.478 66.2135 50.0109 66.3438 49.4195C66.0052 49.3456 65.6829 49.2078 65.377 49.0062C65.071 48.8046 64.8008 48.556 64.5664 48.2603C64.332 47.9579 64.1432 47.6118 64 47.222C63.8633 46.8322 63.7949 46.4088 63.7949 45.9519C63.7949 45.5755 63.8405 45.2462 63.9316 44.964C64.0293 44.675 64.1562 44.4364 64.3125 44.2483C64.4688 44.0534 64.6478 43.9089 64.8496 43.8148C65.0579 43.714 65.276 43.6636 65.5039 43.6636C65.7708 43.6636 66.0443 43.7442 66.3242 43.9055C66.6042 44.0601 66.8581 44.2953 67.0859 44.6112C67.3138 44.9203 67.4993 45.3101 67.6426 45.7805C67.7858 46.2509 67.8574 46.7986 67.8574 47.4236C67.8574 47.6588 67.8444 47.8907 67.8184 48.1191C67.7923 48.3476 67.7533 48.5694 67.7012 48.7845C68.0137 48.6904 68.2969 48.5392 68.5508 48.3308C68.8112 48.1225 69.026 47.847 69.1953 47.5042L69.3027 47.2926L69.7031 47.605ZM64.4395 45.8712C64.4395 46.2677 64.4915 46.634 64.5957 46.97C64.7064 47.2993 64.8529 47.5916 65.0352 47.847C65.2174 48.0956 65.429 48.304 65.6699 48.472C65.9108 48.64 66.168 48.7576 66.4414 48.8248C66.474 48.6366 66.4935 48.4417 66.5 48.2401C66.513 48.0318 66.5195 47.8201 66.5195 47.605C66.5195 47.1279 66.4837 46.6978 66.4121 46.3148C66.3405 45.925 66.2461 45.5957 66.1289 45.3269C66.0117 45.0513 65.875 44.8397 65.7188 44.6918C65.5625 44.544 65.403 44.47 65.2402 44.47C65.0189 44.47 64.8301 44.5944 64.6738 44.843C64.5176 45.0849 64.4395 45.4277 64.4395 45.8712Z" fill="#2E3335" fill-opacity="0.66"/>
<path d="M73.0723 44.2785C72.89 44.2785 72.6849 44.3625 72.457 44.5305C72.2357 44.6985 72.0111 44.9169 71.7832 45.1857C71.5553 45.4478 71.334 45.7435 71.1191 46.0728C70.9108 46.4021 70.7285 46.7281 70.5723 47.0506C70.5527 47.642 70.5332 48.2872 70.5137 48.9861C70.5007 49.685 70.4941 50.4309 70.4941 51.2239C70.4941 51.3247 70.4486 51.4154 70.3574 51.4961C70.2728 51.57 70.1719 51.6339 70.0547 51.6876C69.9375 51.7347 69.8171 51.7716 69.6934 51.7985C69.5697 51.8254 69.4688 51.8388 69.3906 51.8388C69.293 51.8388 69.2018 51.8086 69.1172 51.7481C69.0326 51.6876 68.9902 51.5532 68.9902 51.3449C68.9902 51.2441 69 51.1198 69.0195 50.9719C69.0391 50.8173 69.0651 50.6527 69.0977 50.478C69.1237 50.3032 69.1562 50.1252 69.1953 49.9437C69.2279 49.7555 69.2604 49.5808 69.293 49.4195V44.4902C69.293 44.3558 69.2962 44.2516 69.3027 44.1777C69.3027 44.0971 69.3125 44.0366 69.332 43.9963C69.3711 43.9022 69.4395 43.8283 69.5371 43.7745C69.6348 43.7207 69.7389 43.6804 69.8496 43.6535C69.9603 43.6199 70.0677 43.5998 70.1719 43.593C70.276 43.5863 70.3574 43.583 70.416 43.583C70.5267 43.583 70.6016 43.6132 70.6406 43.6737C70.6862 43.7342 70.709 43.8417 70.709 43.9963C70.709 43.9761 70.6927 44.1407 70.6602 44.4902C70.6341 44.8397 70.6113 45.3403 70.5918 45.9922C70.7871 45.6763 70.9987 45.3739 71.2266 45.0849C71.4544 44.796 71.6921 44.5406 71.9395 44.3188C72.1868 44.0971 72.4408 43.919 72.7012 43.7846C72.9681 43.6502 73.2383 43.583 73.5117 43.583C74 43.583 74.3581 43.7442 74.5859 44.0668C74.8138 44.3827 74.9277 44.8128 74.9277 45.3571C74.9277 45.6998 74.9049 46.0829 74.8594 46.5063C74.8203 46.9229 74.7715 47.3497 74.7129 47.7865C74.6608 48.2166 74.612 48.64 74.5664 49.0566C74.5273 49.4666 74.5078 49.8429 74.5078 50.1856C74.5078 50.6292 74.6413 50.8509 74.9082 50.8509C74.9928 50.8509 75.0905 50.8073 75.2012 50.7199C75.3184 50.6258 75.4616 50.4544 75.6309 50.2058C75.8066 49.9571 76.015 49.6178 76.2559 49.1877C76.4967 48.7509 76.7832 48.1897 77.1152 47.5042L77.2129 47.2926L77.6133 47.605L77.5156 47.8167C77.125 48.6232 76.7767 49.2851 76.4707 49.8026C76.1712 50.32 75.8978 50.73 75.6504 51.0324C75.403 51.3348 75.1719 51.5465 74.957 51.6675C74.7422 51.7817 74.5273 51.8388 74.3125 51.8388C74.1758 51.8388 74.0391 51.8187 73.9023 51.7783C73.7656 51.738 73.6452 51.6675 73.541 51.5667C73.4368 51.4658 73.3522 51.3314 73.2871 51.1634C73.222 50.9887 73.1895 50.7669 73.1895 50.4981C73.1895 50.0949 73.2155 49.6413 73.2676 49.1373C73.3197 48.6333 73.3783 48.1292 73.4434 47.6252C73.5085 47.1212 73.5671 46.6474 73.6191 46.2039C73.6712 45.7536 73.6973 45.3874 73.6973 45.1051C73.6973 44.8565 73.6452 44.6582 73.541 44.5104C73.4368 44.3558 73.2806 44.2785 73.0723 44.2785Z" fill="#2E3335" fill-opacity="0.66"/>
<path d="M77.1836 48.5324C77.1836 47.8201 77.2096 47.1044 77.2617 46.3853C77.3138 45.6662 77.3822 44.9371 77.4668 44.1979H76.5781L76.6855 43.583H77.5449C77.6361 42.8975 77.7272 42.212 77.8184 41.5266C77.916 40.8344 78.0039 40.1422 78.082 39.45H79.0781C79.0651 39.5978 79.0456 39.8129 79.0195 40.0951C79 40.3707 78.974 40.6932 78.9414 41.0629C78.9154 41.4258 78.8893 41.8256 78.8633 42.2624C78.8372 42.6925 78.8112 43.1327 78.7852 43.583H80.6797L80.582 44.1979H78.7461C78.7201 44.5809 78.6973 44.9573 78.6777 45.3269C78.6582 45.6965 78.6387 46.0493 78.6191 46.3853C78.6061 46.7146 78.5964 47.0204 78.5898 47.3026C78.5833 47.5782 78.5801 47.8167 78.5801 48.0183C78.5801 48.5291 78.5931 48.9558 78.6191 49.2986C78.6517 49.6413 78.6973 49.9168 78.7559 50.1252C78.821 50.3335 78.8991 50.4813 78.9902 50.5687C79.0879 50.6561 79.1986 50.6997 79.3223 50.6997C79.485 50.6997 79.6641 50.6157 79.8594 50.4477C80.0612 50.273 80.2695 50.0411 80.4844 49.7522C80.6992 49.4632 80.9173 49.1272 81.1387 48.7441C81.36 48.3544 81.5749 47.9411 81.7832 47.5042L81.8809 47.2926L82.2812 47.605L82.1836 47.8167C81.8841 48.4417 81.5846 49.0029 81.2852 49.5002C80.9922 49.9975 80.7025 50.4208 80.416 50.7703C80.1296 51.113 79.8496 51.3785 79.5762 51.5667C79.3027 51.7481 79.0391 51.8388 78.7852 51.8388C78.5312 51.8388 78.3034 51.7783 78.1016 51.6574C77.9062 51.5364 77.7402 51.3449 77.6035 51.0828C77.4668 50.814 77.3626 50.4712 77.291 50.0546C77.2194 49.6379 77.1836 49.1306 77.1836 48.5324Z" fill="#2E3335" fill-opacity="0.66"/>
<path d="M84.7715 50.6997C84.9993 50.6997 85.2305 50.6393 85.4648 50.5183C85.7057 50.3973 85.9466 50.2092 86.1875 49.9538C86.4349 49.6984 86.6888 49.3691 86.9492 48.9659C87.2096 48.556 87.4766 48.0687 87.75 47.5042L87.8477 47.2926L88.248 47.605L88.1504 47.8167C87.7988 48.5358 87.4473 49.1507 87.0957 49.6615C86.7507 50.1722 86.4089 50.5889 86.0703 50.9114C85.7383 51.234 85.4095 51.4692 85.084 51.6171C84.7585 51.7649 84.446 51.8388 84.1465 51.8388C83.7233 51.8388 83.3457 51.7481 83.0137 51.5667C82.6816 51.3852 82.4017 51.1399 82.1738 50.8308C81.946 50.5149 81.7734 50.152 81.6562 49.7421C81.5326 49.3254 81.4707 48.8886 81.4707 48.4316C81.4707 47.7059 81.5684 47.0473 81.7637 46.4559C81.9525 45.8578 82.2064 45.347 82.5254 44.9237C82.8509 44.5003 83.2188 44.171 83.6289 43.9358C84.0391 43.7006 84.4655 43.583 84.9082 43.583C85.3574 43.583 85.6992 43.7006 85.9336 43.9358C86.1745 44.171 86.2949 44.4667 86.2949 44.8229C86.2949 45.1656 86.2005 45.4882 86.0117 45.7906C85.8229 46.0863 85.5658 46.3786 85.2402 46.6676C84.9212 46.9498 84.5501 47.2321 84.127 47.5143C83.7038 47.7899 83.2578 48.0755 82.7891 48.3712C82.8346 48.7206 82.9128 49.0398 83.0234 49.3288C83.1341 49.6111 83.2741 49.8563 83.4434 50.0647C83.6126 50.2663 83.8079 50.4242 84.0293 50.5384C84.2507 50.646 84.498 50.6997 84.7715 50.6997ZM85.0742 45.1253C85.0742 44.8565 85.0026 44.6448 84.8594 44.4902C84.7227 44.3356 84.5534 44.2583 84.3516 44.2583C84.1823 44.2583 84.0033 44.3222 83.8145 44.4499C83.6257 44.5708 83.4531 44.7691 83.2969 45.0446C83.1406 45.3134 83.0104 45.6595 82.9062 46.0829C82.8021 46.5063 82.75 47.0204 82.75 47.6252V47.8571C82.9714 47.7361 83.2155 47.5782 83.4824 47.3833C83.7559 47.1817 84.0098 46.9599 84.2441 46.718C84.4785 46.476 84.6738 46.2207 84.8301 45.9519C84.9928 45.6763 85.0742 45.4008 85.0742 45.1253Z" fill="#2E3335" fill-opacity="0.66"/>
<path d="M91.6074 44.2785C91.4251 44.2785 91.2201 44.3625 90.9922 44.5305C90.7708 44.6985 90.5462 44.9169 90.3184 45.1857C90.0905 45.4478 89.8691 45.7435 89.6543 46.0728C89.446 46.4021 89.2637 46.7281 89.1074 47.0506C89.0879 47.642 89.0684 48.2872 89.0488 48.9861C89.0358 49.685 89.0293 50.4309 89.0293 51.2239C89.0293 51.3247 88.9837 51.4154 88.8926 51.4961C88.8079 51.57 88.707 51.6339 88.5898 51.6876C88.4727 51.7347 88.3522 51.7716 88.2285 51.7985C88.1048 51.8254 88.0039 51.8388 87.9258 51.8388C87.8281 51.8388 87.737 51.8086 87.6523 51.7481C87.5677 51.6876 87.5254 51.5532 87.5254 51.3449C87.5254 51.2441 87.5352 51.1198 87.5547 50.9719C87.5742 50.8173 87.6003 50.6527 87.6328 50.478C87.6589 50.3032 87.6914 50.1252 87.7305 49.9437C87.763 49.7555 87.7956 49.5808 87.8281 49.4195V44.4902C87.8281 44.3558 87.8314 44.2516 87.8379 44.1777C87.8379 44.0971 87.8477 44.0366 87.8672 43.9963C87.9062 43.9022 87.9746 43.8283 88.0723 43.7745C88.1699 43.7207 88.2741 43.6804 88.3848 43.6535C88.4954 43.6199 88.6029 43.5998 88.707 43.593C88.8112 43.5863 88.8926 43.583 88.9512 43.583C89.0618 43.583 89.1367 43.6132 89.1758 43.6737C89.2214 43.7342 89.2441 43.8417 89.2441 43.9963C89.2441 43.9761 89.2279 44.1407 89.1953 44.4902C89.1693 44.8397 89.1465 45.3403 89.127 45.9922C89.3223 45.6763 89.5339 45.3739 89.7617 45.0849C89.9896 44.796 90.2272 44.5406 90.4746 44.3188C90.722 44.0971 90.9759 43.919 91.2363 43.7846C91.5033 43.6502 91.7734 43.583 92.0469 43.583C92.5352 43.583 92.8932 43.7442 93.1211 44.0668C93.349 44.3827 93.4629 44.8128 93.4629 45.3571C93.4629 45.6998 93.4401 46.0829 93.3945 46.5063C93.3555 46.9229 93.3066 47.3497 93.248 47.7865C93.196 48.2166 93.1471 48.64 93.1016 49.0566C93.0625 49.4666 93.043 49.8429 93.043 50.1856C93.043 50.6292 93.1764 50.8509 93.4434 50.8509C93.528 50.8509 93.6257 50.8073 93.7363 50.7199C93.8535 50.6258 93.9967 50.4544 94.166 50.2058C94.3418 49.9571 94.5501 49.6178 94.791 49.1877C95.0319 48.7509 95.3184 48.1897 95.6504 47.5042L95.748 47.2926L96.1484 47.605L96.0508 47.8167C95.6602 48.6232 95.3118 49.2851 95.0059 49.8026C94.7064 50.32 94.4329 50.73 94.1855 51.0324C93.9382 51.3348 93.707 51.5465 93.4922 51.6675C93.2773 51.7817 93.0625 51.8388 92.8477 51.8388C92.7109 51.8388 92.5742 51.8187 92.4375 51.7783C92.3008 51.738 92.1803 51.6675 92.0762 51.5667C91.972 51.4658 91.8874 51.3314 91.8223 51.1634C91.7572 50.9887 91.7246 50.7669 91.7246 50.4981C91.7246 50.0949 91.7507 49.6413 91.8027 49.1373C91.8548 48.6333 91.9134 48.1292 91.9785 47.6252C92.0436 47.1212 92.1022 46.6474 92.1543 46.2039C92.2064 45.7536 92.2324 45.3874 92.2324 45.1051C92.2324 44.8565 92.1803 44.6582 92.0762 44.5104C91.972 44.3558 91.8158 44.2785 91.6074 44.2785Z" fill="#2E3335" fill-opacity="0.66"/>
<path d="M97.7402 51.8388C97.3431 51.8388 96.998 51.7515 96.7051 51.5767C96.4186 51.402 96.181 51.1668 95.9922 50.8711C95.8034 50.5687 95.6634 50.2226 95.5723 49.8328C95.4811 49.443 95.4355 49.0297 95.4355 48.5929C95.4355 48.2099 95.4714 47.8201 95.543 47.4236C95.6146 47.0271 95.7155 46.644 95.8457 46.2744C95.9824 45.8981 96.1517 45.5486 96.3535 45.2261C96.5553 44.8968 96.7865 44.6112 97.0469 44.3692C97.3073 44.1273 97.597 43.9358 97.916 43.7947C98.2415 43.6535 98.5898 43.583 98.9609 43.583C99.3841 43.583 99.7422 43.6804 100.035 43.8753C100.335 44.0702 100.576 44.3088 100.758 44.591C100.764 43.3209 100.826 42.1986 100.943 41.2241C101.061 40.2497 101.223 39.4332 101.432 38.7746C101.646 38.116 101.9 37.6187 102.193 37.2827C102.486 36.94 102.809 36.7686 103.16 36.7686C103.284 36.7686 103.395 36.7854 103.492 36.819C103.596 36.8459 103.681 36.8996 103.746 36.9803C103.818 37.0609 103.87 37.1718 103.902 37.3129C103.941 37.4473 103.961 37.6221 103.961 37.8371C103.961 38.2807 103.919 38.7914 103.834 39.3693C103.749 39.9406 103.629 40.5656 103.473 41.2443C103.316 41.9163 103.124 42.6354 102.896 43.4015C102.675 44.1609 102.428 44.9505 102.154 45.7704C102.161 46.4895 102.171 47.1111 102.184 47.6353C102.197 48.1595 102.213 48.603 102.232 48.9659C102.258 49.3288 102.288 49.6245 102.32 49.853C102.359 50.0815 102.402 50.2596 102.447 50.3872C102.499 50.5082 102.558 50.5922 102.623 50.6393C102.695 50.6796 102.773 50.6997 102.857 50.6997C103.007 50.6997 103.157 50.6325 103.307 50.4981C103.463 50.357 103.629 50.152 103.805 49.8832C103.98 49.6077 104.169 49.2717 104.371 48.8752C104.579 48.4787 104.807 48.0217 105.055 47.5042L105.162 47.2926L105.562 47.605L105.455 47.8167C105.077 48.603 104.745 49.2549 104.459 49.7723C104.173 50.2831 103.909 50.693 103.668 51.0021C103.434 51.3113 103.209 51.5297 102.994 51.6574C102.779 51.7783 102.555 51.8388 102.32 51.8388C102.092 51.8388 101.894 51.7817 101.725 51.6675C101.562 51.5465 101.422 51.3617 101.305 51.113C101.188 50.8577 101.093 50.5351 101.021 50.1453C100.95 49.7488 100.895 49.275 100.855 48.724C100.628 49.1944 100.393 49.6211 100.152 50.0042C99.9115 50.3872 99.6608 50.7165 99.4004 50.9921C99.1465 51.2609 98.8796 51.4692 98.5996 51.6171C98.3197 51.7649 98.0332 51.8388 97.7402 51.8388ZM99.1562 44.0971C98.7982 44.0971 98.4857 44.2113 98.2188 44.4398C97.9518 44.6616 97.7305 44.9539 97.5547 45.3168C97.3789 45.673 97.2487 46.0762 97.1641 46.5264C97.0794 46.9767 97.0371 47.427 97.0371 47.8772C97.0371 48.2468 97.0632 48.603 97.1152 48.9457C97.1738 49.2818 97.2585 49.5808 97.3691 49.8429C97.4863 50.105 97.6263 50.3133 97.7891 50.4679C97.9518 50.6225 98.1406 50.6997 98.3555 50.6997C98.5638 50.6997 98.7656 50.646 98.9609 50.5384C99.1628 50.4309 99.3613 50.2596 99.5566 50.0243C99.752 49.7824 99.9505 49.4733 100.152 49.0969C100.354 48.7139 100.569 48.2502 100.797 47.7059C100.784 47.3833 100.774 47.0405 100.768 46.6776C100.761 46.308 100.758 45.9149 100.758 45.4982C100.615 45.0614 100.396 44.7187 100.104 44.47C99.8171 44.2214 99.5013 44.0971 99.1562 44.0971ZM103.258 38.2101C103.258 37.901 103.222 37.6859 103.15 37.565C103.085 37.444 103.007 37.3835 102.916 37.3835C102.76 37.3835 102.633 37.5414 102.535 37.8573C102.438 38.1664 102.359 38.5864 102.301 39.1173C102.249 39.6482 102.21 40.2631 102.184 40.9621C102.164 41.661 102.154 42.3968 102.154 43.1697V44.2785C102.356 43.5998 102.529 42.9882 102.672 42.4439C102.815 41.8995 102.929 41.3922 103.014 40.9217C103.098 40.4513 103.16 39.9977 103.199 39.5609C103.238 39.1241 103.258 38.6738 103.258 38.2101Z" fill="#2E3335" fill-opacity="0.66"/>
<path d="M115.23 34.9138C116.52 34.9138 117.685 35.1289 118.727 35.5589C119.775 35.9823 120.67 36.5737 121.412 37.3331C122.154 38.0925 122.727 38.9964 123.131 40.0447C123.535 41.0931 123.736 42.2389 123.736 43.4822C123.736 44.2819 123.661 45.0547 123.512 45.8007C123.362 46.5466 123.147 47.2489 122.867 47.9075C122.587 48.566 122.242 49.1675 121.832 49.7119C121.428 50.2562 120.969 50.7266 120.455 51.1231C119.947 51.5129 119.387 51.8153 118.775 52.0304C118.17 52.2454 117.522 52.3529 116.832 52.3529C116.129 52.3529 115.419 52.2857 114.703 52.1513C113.987 52.0169 113.277 51.8724 112.574 51.7179C112.333 51.859 112.086 51.9799 111.832 52.0808C111.578 52.1883 111.324 52.2756 111.07 52.3428C110.816 52.4168 110.566 52.4705 110.318 52.5041C110.077 52.5445 109.85 52.5646 109.635 52.5646C108.984 52.5646 108.489 52.4873 108.15 52.3328C107.805 52.1782 107.633 51.9463 107.633 51.6372C107.633 51.4558 107.682 51.2945 107.779 51.1534C107.87 51.0122 108.027 50.8946 108.248 50.8005C108.469 50.6997 108.759 50.6258 109.117 50.5788C109.469 50.525 109.908 50.4981 110.436 50.4981C110.846 50.4981 111.249 50.5216 111.646 50.5687C112.044 50.609 112.438 50.6594 112.828 50.7199L113.092 50.4376C113.229 50.2696 113.333 50.0579 113.404 49.8026C113.476 49.5405 113.528 49.2045 113.561 48.7945C113.593 48.3846 113.613 47.8839 113.619 47.2926C113.626 46.6945 113.629 45.972 113.629 45.1253C113.629 44.3054 113.632 43.6065 113.639 43.0285C113.652 42.4439 113.678 41.9432 113.717 41.5266C113.756 41.1099 113.814 40.7571 113.893 40.4681C113.971 40.1724 114.075 39.9036 114.205 39.6617C114.342 39.413 114.511 39.1711 114.713 38.9359C114.915 38.694 115.156 38.4184 115.436 38.1093L115.934 38.5629C115.79 38.704 115.676 38.8788 115.592 39.0871C115.514 39.2887 115.455 39.5306 115.416 39.8129C115.377 40.0884 115.351 40.4043 115.338 40.7604C115.331 41.1099 115.328 41.5064 115.328 41.9499V47.6252C115.328 48.062 115.283 48.4451 115.191 48.7744C115.1 49.0969 114.977 49.3859 114.82 49.6413C114.671 49.8967 114.498 50.1252 114.303 50.3268C114.107 50.5284 113.906 50.7165 113.697 50.8913C114.081 50.9719 114.456 51.0526 114.82 51.1332C115.185 51.2138 115.536 51.2878 115.875 51.355C116.22 51.4222 116.549 51.4793 116.861 51.5263C117.18 51.5667 117.483 51.5868 117.77 51.5868C118.303 51.5868 118.779 51.4658 119.195 51.2239C119.612 50.982 119.973 50.6527 120.279 50.236C120.585 49.8127 120.842 49.3187 121.051 48.7542C121.266 48.183 121.438 47.5714 121.568 46.9196C121.699 46.2677 121.79 45.5856 121.842 44.8733C121.9 44.1609 121.93 43.4553 121.93 42.7564C121.93 41.6475 121.793 40.6529 121.52 39.7726C121.246 38.8922 120.839 38.1463 120.299 37.5347C119.765 36.9164 119.098 36.446 118.297 36.1235C117.503 35.7942 116.581 35.6295 115.533 35.6295C114.778 35.6295 114.12 35.6934 113.561 35.821C113.001 35.942 112.519 36.1067 112.115 36.315C111.718 36.5166 111.393 36.7484 111.139 37.0105C110.885 37.2726 110.683 37.5448 110.533 37.827C110.39 38.1026 110.289 38.3781 110.23 38.6536C110.178 38.9292 110.152 39.1812 110.152 39.4097C110.152 39.6785 110.172 39.9439 110.211 40.206C110.257 40.4614 110.341 40.6899 110.465 40.8915C110.595 41.0931 110.777 41.2544 111.012 41.3754C111.246 41.4963 111.559 41.5568 111.949 41.5568C112.079 41.5568 112.187 41.5501 112.271 41.5366C112.356 41.5165 112.428 41.493 112.486 41.4661C112.551 41.4392 112.607 41.409 112.652 41.3754L112.77 41.9701C112.672 42.044 112.506 42.1079 112.271 42.1616C112.044 42.2154 111.796 42.2423 111.529 42.2423C111.139 42.2423 110.774 42.1717 110.436 42.0306C110.104 41.8895 109.814 41.6979 109.566 41.456C109.319 41.2073 109.127 40.9217 108.99 40.5992C108.847 40.2766 108.775 39.9339 108.775 39.571C108.775 38.946 108.935 38.3546 109.254 37.7968C109.573 37.2323 110.019 36.7384 110.592 36.315C111.165 35.8849 111.845 35.5455 112.633 35.2969C113.427 35.0415 114.293 34.9138 115.23 34.9138ZM109.234 51.2239C109.13 51.2239 109.02 51.2273 108.902 51.234C108.785 51.2407 108.678 51.2575 108.58 51.2844C108.476 51.3113 108.391 51.3516 108.326 51.4054C108.261 51.4591 108.229 51.5364 108.229 51.6372C108.229 51.7716 108.336 51.8724 108.551 51.9396C108.766 52.0068 109.127 52.0404 109.635 52.0404C110.025 52.0404 110.396 51.9967 110.748 51.9094C111.106 51.822 111.441 51.6943 111.754 51.5263C111.324 51.4457 110.898 51.3751 110.475 51.3146C110.051 51.2542 109.638 51.2239 109.234 51.2239Z" fill="#2E3335" fill-opacity="0.66"/>
<path d="M127.838 50.6997C128.066 50.6997 128.297 50.6393 128.531 50.5183C128.772 50.3973 129.013 50.2092 129.254 49.9538C129.501 49.6984 129.755 49.3691 130.016 48.9659C130.276 48.556 130.543 48.0687 130.816 47.5042L130.914 47.2926L131.314 47.605L131.217 47.8167C130.865 48.5358 130.514 49.1507 130.162 49.6615C129.817 50.1722 129.475 50.5889 129.137 50.9114C128.805 51.234 128.476 51.4692 128.15 51.6171C127.825 51.7649 127.512 51.8388 127.213 51.8388C126.79 51.8388 126.412 51.7481 126.08 51.5667C125.748 51.3852 125.468 51.1399 125.24 50.8308C125.012 50.5149 124.84 50.152 124.723 49.7421C124.599 49.3254 124.537 48.8886 124.537 48.4316C124.537 47.7059 124.635 47.0473 124.83 46.4559C125.019 45.8578 125.273 45.347 125.592 44.9237C125.917 44.5003 126.285 44.171 126.695 43.9358C127.105 43.7006 127.532 43.583 127.975 43.583C128.424 43.583 128.766 43.7006 129 43.9358C129.241 44.171 129.361 44.4667 129.361 44.8229C129.361 45.1656 129.267 45.4882 129.078 45.7906C128.889 46.0863 128.632 46.3786 128.307 46.6676C127.988 46.9498 127.617 47.2321 127.193 47.5143C126.77 47.7899 126.324 48.0755 125.855 48.3712C125.901 48.7206 125.979 49.0398 126.09 49.3288C126.201 49.6111 126.34 49.8563 126.51 50.0647C126.679 50.2663 126.874 50.4242 127.096 50.5384C127.317 50.646 127.564 50.6997 127.838 50.6997ZM128.141 45.1253C128.141 44.8565 128.069 44.6448 127.926 44.4902C127.789 44.3356 127.62 44.2583 127.418 44.2583C127.249 44.2583 127.07 44.3222 126.881 44.4499C126.692 44.5708 126.52 44.7691 126.363 45.0446C126.207 45.3134 126.077 45.6595 125.973 46.0829C125.868 46.5063 125.816 47.0204 125.816 47.6252V47.8571C126.038 47.7361 126.282 47.5782 126.549 47.3833C126.822 47.1817 127.076 46.9599 127.311 46.718C127.545 46.476 127.74 46.2207 127.896 45.9519C128.059 45.6763 128.141 45.4008 128.141 45.1253Z" fill="#2E3335" fill-opacity="0.66"/>
<path d="M136.617 48.3308C136.617 48.7878 136.549 49.228 136.412 49.6514C136.282 50.068 136.087 50.441 135.826 50.7703C135.572 51.0929 135.253 51.3516 134.869 51.5465C134.492 51.7414 134.059 51.8388 133.57 51.8388C133.219 51.8388 132.903 51.7817 132.623 51.6675C132.35 51.5465 132.115 51.3886 131.92 51.1937C131.725 50.9921 131.575 50.7669 131.471 50.5183C131.367 50.2629 131.314 50.0008 131.314 49.732C131.314 49.4632 131.363 49.2146 131.461 48.9861C131.565 48.7509 131.702 48.5526 131.871 48.3913C132.047 48.2233 132.245 48.0923 132.467 47.9982C132.688 47.9041 132.923 47.8571 133.17 47.8571C133.326 47.8571 133.489 47.8772 133.658 47.9175V48.2099C133.45 48.2099 133.245 48.2536 133.043 48.3409C132.848 48.4283 132.672 48.5492 132.516 48.7038C132.366 48.8517 132.245 49.0331 132.154 49.2482C132.063 49.4565 132.018 49.6816 132.018 49.9235C132.018 50.3671 132.164 50.7233 132.457 50.9921C132.757 51.2542 133.163 51.3852 133.678 51.3852C133.938 51.3852 134.176 51.3348 134.391 51.234C134.605 51.1265 134.788 50.982 134.938 50.8005C135.094 50.6124 135.211 50.3906 135.289 50.1352C135.374 49.8799 135.416 49.601 135.416 49.2986C135.416 49.0096 135.361 48.7408 135.25 48.4921C135.139 48.2435 134.993 48.0083 134.811 47.7865C134.628 47.5647 134.42 47.3564 134.186 47.1615C133.958 46.9666 133.723 46.7818 133.482 46.6071C133.248 46.4256 133.017 46.2509 132.789 46.0829C132.561 45.9149 132.363 45.7469 132.193 45.5789L131.217 47.8167L130.816 47.5042L131.812 45.2563C131.572 45.0211 131.393 44.7993 131.275 44.591C131.165 44.376 131.109 44.1206 131.109 43.8249C131.109 43.6636 131.135 43.5124 131.188 43.3713C131.246 43.2234 131.321 43.0991 131.412 42.9983C131.51 42.8908 131.62 42.8068 131.744 42.7463C131.868 42.6858 131.998 42.6556 132.135 42.6556C132.382 42.6556 132.568 42.7295 132.691 42.8773C132.815 43.0185 132.877 43.1965 132.877 43.4116C132.877 43.5124 132.867 43.6199 132.848 43.7342C132.828 43.8417 132.802 43.9526 132.77 44.0668C132.743 44.1743 132.714 44.2752 132.682 44.3692C132.656 44.4633 132.633 44.544 132.613 44.6112C132.809 44.7657 133.043 44.9169 133.316 45.0648C133.59 45.2059 133.873 45.3538 134.166 45.5083C134.465 45.6629 134.762 45.8309 135.055 46.0123C135.348 46.1938 135.608 46.3954 135.836 46.6172C136.07 46.8389 136.259 47.0909 136.402 47.3732C136.546 47.6554 136.617 47.9747 136.617 48.3308ZM132.154 43.1092C132.063 43.1092 131.988 43.1428 131.93 43.21C131.878 43.2705 131.852 43.3545 131.852 43.462C131.852 43.583 131.881 43.7174 131.939 43.8652C131.998 44.0131 132.102 44.1575 132.252 44.2987C132.317 44.1575 132.366 44.0198 132.398 43.8854C132.438 43.751 132.457 43.6166 132.457 43.4822C132.457 43.3746 132.428 43.2873 132.369 43.2201C132.317 43.1461 132.245 43.1092 132.154 43.1092Z" fill="#2E3335" fill-opacity="0.66"/>
<path d="M137.916 47.4034L137.818 47.605L137.721 47.8167L137.32 47.5042L137.418 47.2926C137.581 46.9498 137.714 46.6071 137.818 46.2644C137.929 45.9149 138.017 45.589 138.082 45.2866C138.154 44.9841 138.212 44.7187 138.258 44.4902C138.303 44.2617 138.349 44.0971 138.395 43.9963C138.434 43.9156 138.489 43.8518 138.561 43.8047C138.639 43.751 138.717 43.7073 138.795 43.6737C138.88 43.6401 138.958 43.6166 139.029 43.6031C139.107 43.5897 139.163 43.583 139.195 43.583C139.339 43.583 139.433 43.6132 139.479 43.6737C139.531 43.7342 139.557 43.8417 139.557 43.9963C139.557 44.0702 139.54 44.255 139.508 44.5507C139.482 44.8397 139.449 45.2059 139.41 45.6494C139.378 46.0863 139.345 46.5802 139.312 47.1313C139.286 47.6756 139.273 48.2401 139.273 48.8248C139.273 49.2482 139.293 49.5842 139.332 49.8328C139.371 50.0747 139.42 50.2562 139.479 50.3772C139.544 50.4981 139.612 50.5754 139.684 50.609C139.762 50.6426 139.84 50.6594 139.918 50.6594C140.022 50.6594 140.139 50.6124 140.27 50.5183C140.4 50.4242 140.553 50.2596 140.729 50.0243C140.904 49.7824 141.106 49.4598 141.334 49.0566C141.562 48.6467 141.829 48.1292 142.135 47.5042L142.242 47.2926L142.643 47.605L142.535 47.8167C142.288 48.314 142.04 48.8046 141.793 49.2885C141.552 49.7723 141.305 50.2024 141.051 50.5788C140.803 50.9551 140.553 51.2609 140.299 51.4961C140.045 51.7246 139.791 51.8388 139.537 51.8388C139.27 51.8388 139.039 51.7851 138.844 51.6775C138.655 51.5633 138.495 51.3785 138.365 51.1231C138.242 50.8677 138.147 50.5317 138.082 50.1151C138.023 49.6917 137.994 49.1709 137.994 48.5526C137.994 48.3779 137.994 48.1964 137.994 48.0083C137.994 47.8134 138.001 47.6118 138.014 47.4034H137.916ZM139.918 41.5165C139.918 41.7517 139.84 41.9499 139.684 42.1112C139.534 42.2658 139.345 42.3431 139.117 42.3431C138.896 42.3431 138.707 42.2658 138.551 42.1112C138.395 41.9499 138.316 41.7517 138.316 41.5165C138.316 41.288 138.395 41.0931 138.551 40.9318C138.707 40.7705 138.896 40.6899 139.117 40.6899C139.345 40.6899 139.534 40.7705 139.684 40.9318C139.84 41.0931 139.918 41.288 139.918 41.5165Z" fill="#2E3335" fill-opacity="0.66"/>
<path d="M144.967 55.6593C144.967 55.3636 145.019 55.0646 145.123 54.7621C145.234 54.4597 145.383 54.1506 145.572 53.8347C145.761 53.5189 145.979 53.1896 146.227 52.8469C146.48 52.5109 146.754 52.1614 147.047 51.7985V49.8933C146.891 50.2092 146.715 50.488 146.52 50.73C146.324 50.9719 146.116 51.1769 145.895 51.3449C145.68 51.5062 145.455 51.6305 145.221 51.7179C144.993 51.7985 144.768 51.8388 144.547 51.8388C144.241 51.8388 143.945 51.7615 143.658 51.607C143.378 51.4524 143.128 51.2206 142.906 50.9114C142.685 50.5956 142.509 50.1991 142.379 49.7219C142.249 49.2448 142.184 48.6837 142.184 48.0385C142.184 47.4942 142.245 46.9565 142.369 46.4256C142.493 45.8947 142.678 45.421 142.926 45.0043C143.173 44.5809 143.479 44.2382 143.844 43.9761C144.208 43.714 144.635 43.583 145.123 43.583C145.507 43.583 145.865 43.6636 146.197 43.8249C146.536 43.9862 146.819 44.2214 147.047 44.5305V44.4096C147.047 44.2819 147.083 44.1676 147.154 44.0668C147.232 43.9593 147.327 43.8719 147.438 43.8047C147.555 43.7308 147.675 43.677 147.799 43.6434C147.929 43.6031 148.043 43.583 148.141 43.583C148.251 43.583 148.329 43.5998 148.375 43.6334C148.421 43.6602 148.443 43.7106 148.443 43.7846C148.443 43.8921 148.43 44.134 148.404 44.5104C148.378 44.8867 148.365 45.4378 148.365 46.1635V50.5384C148.528 50.3301 148.701 50.0983 148.883 49.8429C149.065 49.5875 149.247 49.3221 149.43 49.0465C149.612 48.7643 149.788 48.4753 149.957 48.1796C150.133 47.8839 150.296 47.5882 150.445 47.2926L150.543 47.0909L150.943 47.4034L150.846 47.605C150.689 47.9276 150.507 48.2636 150.299 48.6131C150.097 48.9558 149.882 49.2952 149.654 49.6312C149.433 49.9605 149.208 50.2797 148.98 50.5889C148.759 50.8913 148.554 51.1634 148.365 51.4054V53.5928C148.365 54.2111 148.31 54.7353 148.199 55.1654C148.095 55.6022 147.949 55.955 147.76 56.2238C147.577 56.4993 147.356 56.6976 147.096 56.8185C146.842 56.9395 146.565 57 146.266 57C145.895 57 145.585 56.879 145.338 56.6371C145.09 56.4019 144.967 56.076 144.967 55.6593ZM145.143 50.8106C145.344 50.8106 145.543 50.7501 145.738 50.6292C145.94 50.5082 146.126 50.3536 146.295 50.1655C146.464 49.9773 146.614 49.7723 146.744 49.5506C146.881 49.3221 146.982 49.1003 147.047 48.8853V46.0426C147.047 45.7402 147.001 45.468 146.91 45.2261C146.819 44.9774 146.699 44.7691 146.549 44.6011C146.399 44.4264 146.227 44.292 146.031 44.1979C145.842 44.1038 145.647 44.0567 145.445 44.0567C145.133 44.0567 144.859 44.1542 144.625 44.3491C144.391 44.5372 144.195 44.7893 144.039 45.1051C143.883 45.4142 143.766 45.7704 143.688 46.1736C143.616 46.5768 143.58 46.9868 143.58 47.4034C143.58 47.9209 143.609 48.388 143.668 48.8046C143.733 49.2213 143.831 49.5808 143.961 49.8832C144.091 50.1789 144.254 50.4074 144.449 50.5687C144.645 50.73 144.876 50.8106 145.143 50.8106ZM146.158 56.3851C146.262 56.3851 146.367 56.3616 146.471 56.3145C146.581 56.2742 146.679 56.1768 146.764 56.0222C146.848 55.8676 146.917 55.6391 146.969 55.3367C147.021 55.0343 147.047 54.6244 147.047 54.1069V52.6049C146.598 53.1627 146.23 53.6903 145.943 54.1876C145.663 54.6916 145.523 55.162 145.523 55.5988C145.523 55.8071 145.579 55.9886 145.689 56.1432C145.8 56.3044 145.956 56.3851 146.158 56.3851Z" fill="#2E3335" fill-opacity="0.66"/>
<path d="M154.303 44.2785C154.12 44.2785 153.915 44.3625 153.688 44.5305C153.466 44.6985 153.242 44.9169 153.014 45.1857C152.786 45.4478 152.564 45.7435 152.35 46.0728C152.141 46.4021 151.959 46.7281 151.803 47.0506C151.783 47.642 151.764 48.2872 151.744 48.9861C151.731 49.685 151.725 50.4309 151.725 51.2239C151.725 51.3247 151.679 51.4154 151.588 51.4961C151.503 51.57 151.402 51.6339 151.285 51.6876C151.168 51.7347 151.048 51.7716 150.924 51.7985C150.8 51.8254 150.699 51.8388 150.621 51.8388C150.523 51.8388 150.432 51.8086 150.348 51.7481C150.263 51.6876 150.221 51.5532 150.221 51.3449C150.221 51.2441 150.23 51.1198 150.25 50.9719C150.27 50.8173 150.296 50.6527 150.328 50.478C150.354 50.3032 150.387 50.1252 150.426 49.9437C150.458 49.7555 150.491 49.5808 150.523 49.4195V44.4902C150.523 44.3558 150.527 44.2516 150.533 44.1777C150.533 44.0971 150.543 44.0366 150.562 43.9963C150.602 43.9022 150.67 43.8283 150.768 43.7745C150.865 43.7207 150.969 43.6804 151.08 43.6535C151.191 43.6199 151.298 43.5998 151.402 43.593C151.507 43.5863 151.588 43.583 151.646 43.583C151.757 43.583 151.832 43.6132 151.871 43.6737C151.917 43.7342 151.939 43.8417 151.939 43.9963C151.939 43.9761 151.923 44.1407 151.891 44.4902C151.865 44.8397 151.842 45.3403 151.822 45.9922C152.018 45.6763 152.229 45.3739 152.457 45.0849C152.685 44.796 152.923 44.5406 153.17 44.3188C153.417 44.0971 153.671 43.919 153.932 43.7846C154.199 43.6502 154.469 43.583 154.742 43.583C155.23 43.583 155.589 43.7442 155.816 44.0668C156.044 44.3827 156.158 44.8128 156.158 45.3571C156.158 45.6998 156.135 46.0829 156.09 46.5063C156.051 46.9229 156.002 47.3497 155.943 47.7865C155.891 48.2166 155.842 48.64 155.797 49.0566C155.758 49.4666 155.738 49.8429 155.738 50.1856C155.738 50.6292 155.872 50.8509 156.139 50.8509C156.223 50.8509 156.321 50.8073 156.432 50.7199C156.549 50.6258 156.692 50.4544 156.861 50.2058C157.037 49.9571 157.245 49.6178 157.486 49.1877C157.727 48.7509 158.014 48.1897 158.346 47.5042L158.443 47.2926L158.844 47.605L158.746 47.8167C158.355 48.6232 158.007 49.2851 157.701 49.8026C157.402 50.32 157.128 50.73 156.881 51.0324C156.633 51.3348 156.402 51.5465 156.188 51.6675C155.973 51.7817 155.758 51.8388 155.543 51.8388C155.406 51.8388 155.27 51.8187 155.133 51.7783C154.996 51.738 154.876 51.6675 154.771 51.5667C154.667 51.4658 154.583 51.3314 154.518 51.1634C154.452 50.9887 154.42 50.7669 154.42 50.4981C154.42 50.0949 154.446 49.6413 154.498 49.1373C154.55 48.6333 154.609 48.1292 154.674 47.6252C154.739 47.1212 154.798 46.6474 154.85 46.2039C154.902 45.7536 154.928 45.3874 154.928 45.1051C154.928 44.8565 154.876 44.6582 154.771 44.5104C154.667 44.3558 154.511 44.2785 154.303 44.2785Z" fill="#2E3335" fill-opacity="0.66"/>
<path d="M161.334 50.6997C161.562 50.6997 161.793 50.6393 162.027 50.5183C162.268 50.3973 162.509 50.2092 162.75 49.9538C162.997 49.6984 163.251 49.3691 163.512 48.9659C163.772 48.556 164.039 48.0687 164.312 47.5042L164.41 47.2926L164.811 47.605L164.713 47.8167C164.361 48.5358 164.01 49.1507 163.658 49.6615C163.313 50.1722 162.971 50.5889 162.633 50.9114C162.301 51.234 161.972 51.4692 161.646 51.6171C161.321 51.7649 161.008 51.8388 160.709 51.8388C160.286 51.8388 159.908 51.7481 159.576 51.5667C159.244 51.3852 158.964 51.1399 158.736 50.8308C158.508 50.5149 158.336 50.152 158.219 49.7421C158.095 49.3254 158.033 48.8886 158.033 48.4316C158.033 47.7059 158.131 47.0473 158.326 46.4559C158.515 45.8578 158.769 45.347 159.088 44.9237C159.413 44.5003 159.781 44.171 160.191 43.9358C160.602 43.7006 161.028 43.583 161.471 43.583C161.92 43.583 162.262 43.7006 162.496 43.9358C162.737 44.171 162.857 44.4667 162.857 44.8229C162.857 45.1656 162.763 45.4882 162.574 45.7906C162.385 46.0863 162.128 46.3786 161.803 46.6676C161.484 46.9498 161.113 47.2321 160.689 47.5143C160.266 47.7899 159.82 48.0755 159.352 48.3712C159.397 48.7206 159.475 49.0398 159.586 49.3288C159.697 49.6111 159.837 49.8563 160.006 50.0647C160.175 50.2663 160.37 50.4242 160.592 50.5384C160.813 50.646 161.061 50.6997 161.334 50.6997ZM161.637 45.1253C161.637 44.8565 161.565 44.6448 161.422 44.4902C161.285 44.3356 161.116 44.2583 160.914 44.2583C160.745 44.2583 160.566 44.3222 160.377 44.4499C160.188 44.5708 160.016 44.7691 159.859 45.0446C159.703 45.3134 159.573 45.6595 159.469 46.0829C159.365 46.5063 159.312 47.0204 159.312 47.6252V47.8571C159.534 47.7361 159.778 47.5782 160.045 47.3833C160.318 47.1817 160.572 46.9599 160.807 46.718C161.041 46.476 161.236 46.2207 161.393 45.9519C161.555 45.6763 161.637 45.4008 161.637 45.1253Z" fill="#2E3335" fill-opacity="0.66"/>
<path d="M164.312 47.5042L164.41 47.2926C164.508 47.0909 164.596 46.8826 164.674 46.6676C164.758 46.4525 164.83 46.2509 164.889 46.0627C164.947 45.8679 164.993 45.6965 165.025 45.5486C165.058 45.3941 165.081 45.2765 165.094 45.1958C164.924 45.1757 164.762 45.132 164.605 45.0648C164.449 44.9976 164.312 44.9069 164.195 44.7926C164.078 44.6784 163.987 44.544 163.922 44.3894C163.85 44.2348 163.814 44.0601 163.814 43.8652C163.814 43.7106 163.84 43.5729 163.893 43.4519C163.945 43.331 164.016 43.2301 164.107 43.1495C164.192 43.0689 164.29 43.0084 164.4 42.9681C164.505 42.921 164.615 42.8975 164.732 42.8975C164.889 42.8975 165.025 42.9311 165.143 42.9983C165.26 43.0655 165.357 43.1562 165.436 43.2705C165.514 43.378 165.572 43.5057 165.611 43.6535C165.65 43.7947 165.67 43.9425 165.67 44.0971C165.852 44.0971 166.048 44.0702 166.256 44.0164C166.471 43.9627 166.686 43.9055 166.9 43.8451C167.115 43.7778 167.327 43.7174 167.535 43.6636C167.743 43.6098 167.936 43.583 168.111 43.583C168.261 43.583 168.382 43.6166 168.473 43.6838C168.564 43.7442 168.609 43.8484 168.609 43.9963C168.609 44.1038 168.577 44.2819 168.512 44.5305C168.453 44.7792 168.378 45.0681 168.287 45.3974C168.196 45.7267 168.095 46.0863 167.984 46.476C167.88 46.8591 167.783 47.2489 167.691 47.6454C167.6 48.0351 167.522 48.4148 167.457 48.7845C167.398 49.1541 167.369 49.4834 167.369 49.7723C167.369 50.1352 167.408 50.3805 167.486 50.5082C167.564 50.6359 167.704 50.6997 167.906 50.6997C167.991 50.6997 168.095 50.6628 168.219 50.5889C168.349 50.5082 168.505 50.357 168.688 50.1352C168.87 49.9067 169.085 49.5842 169.332 49.1675C169.586 48.7441 169.879 48.1897 170.211 47.5042L170.309 47.2926L170.709 47.605L170.611 47.8167C170.221 48.6232 169.872 49.2851 169.566 49.8026C169.26 50.32 168.977 50.73 168.717 51.0324C168.463 51.3348 168.222 51.5465 167.994 51.6675C167.766 51.7817 167.538 51.8388 167.311 51.8388C166.926 51.8388 166.614 51.6876 166.373 51.3852C166.132 51.0828 166.012 50.6157 166.012 49.984C166.012 49.6413 166.057 49.2851 166.148 48.9155C166.24 48.5459 166.354 48.1796 166.49 47.8167C166.627 47.4471 166.78 47.0842 166.949 46.7281C167.118 46.3719 167.278 46.0359 167.428 45.72C167.584 45.3974 167.724 45.0984 167.848 44.8229C167.971 44.5473 168.059 44.3054 168.111 44.0971L168.053 44.0366C167.949 44.0366 167.809 44.0937 167.633 44.2079C167.457 44.3222 167.258 44.4532 167.037 44.6011C166.822 44.7422 166.591 44.8766 166.344 45.0043C166.096 45.132 165.846 45.2093 165.592 45.2361C165.579 45.3302 165.549 45.468 165.504 45.6494C165.465 45.8309 165.41 46.0325 165.338 46.2543C165.266 46.476 165.185 46.7045 165.094 46.9397C165.003 47.1749 164.908 47.3967 164.811 47.605L164.713 47.8167L164.312 47.5042ZM164.791 43.462C164.732 43.462 164.684 43.4822 164.645 43.5225C164.605 43.5628 164.586 43.6098 164.586 43.6636C164.586 43.7442 164.605 43.8148 164.645 43.8753C164.684 43.9291 164.732 43.9761 164.791 44.0164C164.85 44.05 164.908 44.0769 164.967 44.0971C165.032 44.1105 165.087 44.1172 165.133 44.1172C165.133 43.9291 165.104 43.7745 165.045 43.6535C164.986 43.5258 164.902 43.462 164.791 43.462Z" fill="#2E3335" fill-opacity="0.66"/>
</svg>
